<svg id="visual" viewBox="0 0 960 1107.63" width="960" height="1107.63" xmlns="http://www.w3.org/2000/svg" xmlns:xlink="http://www.w3.org/1999/xlink" version="1.1"><rect x="0" y="0" width="960" height="1107.63" fill="#002233"></rect><path d="M0 869L22.8 891.7C45.7 914.3 91.3 959.7 137 965.5C182.7 971.3 228.3 937.7 274 933.3C319.7 929 365.3 954 411.2 949.8C457 945.7 503 912.3 548.8 907.7C594.7 903 640.3 927 686 931.3C731.7 935.7 777.3 920.3 823 910.7C868.7 901 914.3 897 937.2 895L960 893L960 1109L937.2 1109C914.3 1109 868.7 1109 823 1109C777.3 1109 731.7 1109 686 1109C640.3 1109 594.7 1109 548.8 1109C503 1109 457 1109 411.2 1109C365.3 1109 319.7 1109 274 1109C228.3 1109 182.7 1109 137 1109C91.3 1109 45.7 1109 22.8 1109L0 1109Z" fill="#0066FF" stroke-linecap="round" stroke-linejoin="miter"></path></svg>